# xmcd CD database file
#
# Track frame offsets:
#	150
#	19343
#	52879
#	72251
#	101708
#	136876
#	166999
#	195664
#	216806
#	240806
#	256817
#
# Disc length: 3737 seconds
#
# Revision: 0
# Processed by: cddbd v1.5.2PL0 Copyright (c) Steve Scherf et al.
# Submitted via: CDex 1.70beta2
#
DISCID=8f0e970b
DTITLE=Harvey Mason - 2003-2007 Best of Best
DYEAR=1900
DGENRE=Jazz
TTITLE0=All of You (featuring MAKOTO OZONE)
TTITLE1=If I Should Lose You (featuring CHICK COREA)
TTITLE2=Swamp Fire (featuring MONTY ALEXANDER)
TTITLE3=You Don't Know What Love Is (featuring JACKY TERRASON)
TTITLE4=Dindi (featuring BRAD MEHLDAU)
TTITLE5=Without A Song (featuring MULGREW MILLER)
TTITLE6=Sweet And Lovely (featuring GONZALO RUBALCABA)
TTITLE7=One Morning In May (featuring DAVE GRUSIN)
TTITLE8=Speak Like A Child (featuring HARBIE HANCOCK)
TTITLE9=Prelude To A Kiss (featuring JOEY CALDERAZZO)
TTITLE10=Not In A Penthouse (featuring KOJI GOTO)
EXTD=
EXTT0=
EXTT1=
EXTT2=
EXTT3=
EXTT4=
EXTT5=
EXTT6=
EXTT7=
EXTT8=
EXTT9=
EXTT10=
PLAYORDER=
